<svg width="20" height="20" viewBox="0 0 20 20" fill="none" xmlns="http://www.w3.org/2000/svg">
  <rect width="20" height="20" rx="4" fill="#000000"/>
  <path d="M15.5 8.5c0-1.4-1.1-2.5-2.5-2.5-0.5 0-1 0.2-1.4 0.4C11.2 5.6 10.4 5 9.5 5c-1.4 0-2.5 1.1-2.5 2.5 0 0.3 0.1 0.6 0.2 0.9C6.5 8.8 6 9.6 6 10.5c0 1.4 1.1 2.5 2.5 2.5 0.5 0 1-0.2 1.4-0.4 0.4 0.8 1.2 1.4 2.1 1.4 1.4 0 2.5-1.1 2.5-2.5 0-0.3-0.1-0.6-0.2-0.9 0.7-0.4 1.2-1.2 1.2-2.1z" fill="white"/>
  <circle cx="10" cy="10" r="2" fill="black"/>
  <circle cx="10" cy="10" r="1" fill="white"/>
</svg>
